<mxfile host="app.diagrams.net" modified="2020-06-23T23:19:07.086Z" agent="5.0 (Windows NT 10.0; Win64; x64) AppleWebKit/537.36 (KHTML, like Gecko) Chrome/83.0.4103.106 Safari/537.36" etag="CyenQkG8aQl4OUY6XE51" version="13.3.0" type="github">
  <diagram id="jAA-w-9w1YmCEvQKBKFw" name="Page-1">
    <mxGraphModel dx="1422" dy="762" grid="1" gridSize="10" guides="1" tooltips="1" connect="1" arrows="1" fold="1" page="1" pageScale="1" pageWidth="850" pageHeight="1100" math="0" shadow="0">
      <root>
        <mxCell id="0" />
        <mxCell id="1" parent="0" />
        <mxCell id="yD7dUUptE7uX5ube1N9s-4" style="edgeStyle=orthogonalEdgeStyle;rounded=0;orthogonalLoop=1;jettySize=auto;html=1;exitX=0.5;exitY=1;exitDx=0;exitDy=0;entryX=0.5;entryY=0;entryDx=0;entryDy=0;" edge="1" parent="1" source="yD7dUUptE7uX5ube1N9s-1" target="yD7dUUptE7uX5ube1N9s-2">
          <mxGeometry relative="1" as="geometry" />
        </mxCell>
        <mxCell id="yD7dUUptE7uX5ube1N9s-1" value="" style="ellipse;whiteSpace=wrap;html=1;aspect=fixed;fillColor=#1ba1e2;strokeColor=#006EAF;fontColor=#ffffff;" vertex="1" parent="1">
          <mxGeometry x="140" y="40" width="40" height="40" as="geometry" />
        </mxCell>
        <mxCell id="yD7dUUptE7uX5ube1N9s-11" style="edgeStyle=orthogonalEdgeStyle;rounded=0;orthogonalLoop=1;jettySize=auto;html=1;exitX=0.5;exitY=1;exitDx=0;exitDy=0;entryX=0.5;entryY=0;entryDx=0;entryDy=0;" edge="1" parent="1" source="yD7dUUptE7uX5ube1N9s-2" target="yD7dUUptE7uX5ube1N9s-9">
          <mxGeometry relative="1" as="geometry" />
        </mxCell>
        <mxCell id="yD7dUUptE7uX5ube1N9s-2" value="Start Simulation" style="rounded=1;whiteSpace=wrap;html=1;" vertex="1" parent="1">
          <mxGeometry x="100" y="110" width="120" height="60" as="geometry" />
        </mxCell>
        <mxCell id="yD7dUUptE7uX5ube1N9s-6" style="edgeStyle=orthogonalEdgeStyle;rounded=0;orthogonalLoop=1;jettySize=auto;html=1;exitX=0;exitY=0.5;exitDx=0;exitDy=0;entryX=1;entryY=0.5;entryDx=0;entryDy=0;" edge="1" parent="1" source="yD7dUUptE7uX5ube1N9s-5" target="yD7dUUptE7uX5ube1N9s-2">
          <mxGeometry relative="1" as="geometry" />
        </mxCell>
        <mxCell id="yD7dUUptE7uX5ube1N9s-5" value="&amp;lt;&amp;lt;system&amp;gt;&amp;gt;&lt;br&gt;Antikythera" style="rounded=0;whiteSpace=wrap;html=1;" vertex="1" parent="1">
          <mxGeometry x="300" y="110" width="120" height="60" as="geometry" />
        </mxCell>
        <mxCell id="yD7dUUptE7uX5ube1N9s-17" style="edgeStyle=orthogonalEdgeStyle;rounded=0;orthogonalLoop=1;jettySize=auto;html=1;exitX=0.5;exitY=1;exitDx=0;exitDy=0;entryX=0.5;entryY=0;entryDx=0;entryDy=0;" edge="1" parent="1" source="yD7dUUptE7uX5ube1N9s-9" target="yD7dUUptE7uX5ube1N9s-14">
          <mxGeometry relative="1" as="geometry" />
        </mxCell>
        <mxCell id="yD7dUUptE7uX5ube1N9s-9" value="Run Simulation Main Menu" style="rounded=1;whiteSpace=wrap;html=1;" vertex="1" parent="1">
          <mxGeometry x="100" y="210" width="120" height="60" as="geometry" />
        </mxCell>
        <mxCell id="yD7dUUptE7uX5ube1N9s-13" style="edgeStyle=orthogonalEdgeStyle;rounded=0;orthogonalLoop=1;jettySize=auto;html=1;exitX=0;exitY=0.5;exitDx=0;exitDy=0;entryX=1;entryY=0.5;entryDx=0;entryDy=0;" edge="1" parent="1" source="yD7dUUptE7uX5ube1N9s-12" target="yD7dUUptE7uX5ube1N9s-9">
          <mxGeometry relative="1" as="geometry" />
        </mxCell>
        <mxCell id="yD7dUUptE7uX5ube1N9s-12" value="&amp;lt;&amp;lt;system&amp;gt;&amp;gt;&lt;br&gt;GUI" style="rounded=0;whiteSpace=wrap;html=1;" vertex="1" parent="1">
          <mxGeometry x="300" y="210" width="120" height="60" as="geometry" />
        </mxCell>
        <mxCell id="yD7dUUptE7uX5ube1N9s-19" style="edgeStyle=orthogonalEdgeStyle;rounded=0;orthogonalLoop=1;jettySize=auto;html=1;exitX=1;exitY=0.5;exitDx=0;exitDy=0;entryX=0;entryY=0.5;entryDx=0;entryDy=0;" edge="1" parent="1" source="yD7dUUptE7uX5ube1N9s-14" target="yD7dUUptE7uX5ube1N9s-18">
          <mxGeometry relative="1" as="geometry" />
        </mxCell>
        <mxCell id="yD7dUUptE7uX5ube1N9s-21" style="edgeStyle=orthogonalEdgeStyle;rounded=0;orthogonalLoop=1;jettySize=auto;html=1;exitX=0.5;exitY=1;exitDx=0;exitDy=0;entryX=0;entryY=0.5;entryDx=0;entryDy=0;" edge="1" parent="1" source="yD7dUUptE7uX5ube1N9s-14" target="yD7dUUptE7uX5ube1N9s-9">
          <mxGeometry relative="1" as="geometry" />
        </mxCell>
        <mxCell id="yD7dUUptE7uX5ube1N9s-14" value="" style="rhombus;whiteSpace=wrap;html=1;" vertex="1" parent="1">
          <mxGeometry x="137.5" y="320" width="45" height="40" as="geometry" />
        </mxCell>
        <mxCell id="yD7dUUptE7uX5ube1N9s-25" style="edgeStyle=orthogonalEdgeStyle;rounded=0;orthogonalLoop=1;jettySize=auto;html=1;exitX=0.5;exitY=1;exitDx=0;exitDy=0;entryX=0.5;entryY=0;entryDx=0;entryDy=0;" edge="1" parent="1" source="yD7dUUptE7uX5ube1N9s-18" target="yD7dUUptE7uX5ube1N9s-24">
          <mxGeometry relative="1" as="geometry" />
        </mxCell>
        <mxCell id="yD7dUUptE7uX5ube1N9s-18" value="Move Zoom Slider to the right for zoom amount" style="rounded=1;whiteSpace=wrap;html=1;" vertex="1" parent="1">
          <mxGeometry x="425" y="310" width="120" height="60" as="geometry" />
        </mxCell>
        <mxCell id="yD7dUUptE7uX5ube1N9s-20" value="[Zoom In]" style="text;html=1;strokeColor=none;fillColor=none;align=center;verticalAlign=middle;whiteSpace=wrap;rounded=0;" vertex="1" parent="1">
          <mxGeometry x="260" y="320" width="70" height="20" as="geometry" />
        </mxCell>
        <mxCell id="yD7dUUptE7uX5ube1N9s-22" value="[No Zoom]" style="text;html=1;strokeColor=none;fillColor=none;align=center;verticalAlign=middle;whiteSpace=wrap;rounded=0;" vertex="1" parent="1">
          <mxGeometry x="90" y="360" width="62.5" height="20" as="geometry" />
        </mxCell>
        <mxCell id="yD7dUUptE7uX5ube1N9s-29" style="edgeStyle=orthogonalEdgeStyle;rounded=0;orthogonalLoop=1;jettySize=auto;html=1;exitX=0.5;exitY=1;exitDx=0;exitDy=0;entryX=0.5;entryY=0;entryDx=0;entryDy=0;" edge="1" parent="1" source="yD7dUUptE7uX5ube1N9s-24" target="yD7dUUptE7uX5ube1N9s-28">
          <mxGeometry relative="1" as="geometry" />
        </mxCell>
        <mxCell id="yD7dUUptE7uX5ube1N9s-24" value="Update Position" style="rounded=1;whiteSpace=wrap;html=1;" vertex="1" parent="1">
          <mxGeometry x="425" y="410" width="120" height="60" as="geometry" />
        </mxCell>
        <mxCell id="yD7dUUptE7uX5ube1N9s-27" style="edgeStyle=orthogonalEdgeStyle;rounded=0;orthogonalLoop=1;jettySize=auto;html=1;exitX=1;exitY=0.5;exitDx=0;exitDy=0;entryX=0;entryY=0.5;entryDx=0;entryDy=0;" edge="1" parent="1" source="yD7dUUptE7uX5ube1N9s-26" target="yD7dUUptE7uX5ube1N9s-24">
          <mxGeometry relative="1" as="geometry" />
        </mxCell>
        <mxCell id="yD7dUUptE7uX5ube1N9s-26" value="&amp;lt;&amp;lt;system&amp;gt;&amp;gt;&lt;br&gt;GUI" style="rounded=0;whiteSpace=wrap;html=1;" vertex="1" parent="1">
          <mxGeometry x="260" y="410" width="120" height="60" as="geometry" />
        </mxCell>
        <mxCell id="yD7dUUptE7uX5ube1N9s-30" style="edgeStyle=orthogonalEdgeStyle;rounded=0;orthogonalLoop=1;jettySize=auto;html=1;exitX=1;exitY=0.5;exitDx=0;exitDy=0;entryX=1;entryY=0.75;entryDx=0;entryDy=0;" edge="1" parent="1" source="yD7dUUptE7uX5ube1N9s-28" target="yD7dUUptE7uX5ube1N9s-18">
          <mxGeometry relative="1" as="geometry">
            <mxPoint x="580" y="340" as="targetPoint" />
            <Array as="points">
              <mxPoint x="650" y="540" />
              <mxPoint x="650" y="355" />
            </Array>
          </mxGeometry>
        </mxCell>
        <mxCell id="yD7dUUptE7uX5ube1N9s-34" style="edgeStyle=orthogonalEdgeStyle;rounded=0;orthogonalLoop=1;jettySize=auto;html=1;exitX=0.5;exitY=1;exitDx=0;exitDy=0;" edge="1" parent="1" source="yD7dUUptE7uX5ube1N9s-28" target="yD7dUUptE7uX5ube1N9s-33">
          <mxGeometry relative="1" as="geometry" />
        </mxCell>
        <mxCell id="yD7dUUptE7uX5ube1N9s-41" style="edgeStyle=orthogonalEdgeStyle;rounded=0;orthogonalLoop=1;jettySize=auto;html=1;exitX=0;exitY=0.5;exitDx=0;exitDy=0;entryX=0;entryY=0.5;entryDx=0;entryDy=0;" edge="1" parent="1" source="yD7dUUptE7uX5ube1N9s-28" target="yD7dUUptE7uX5ube1N9s-33">
          <mxGeometry relative="1" as="geometry">
            <Array as="points">
              <mxPoint x="290" y="540" />
              <mxPoint x="290" y="640" />
            </Array>
          </mxGeometry>
        </mxCell>
        <mxCell id="yD7dUUptE7uX5ube1N9s-28" value="" style="rhombus;whiteSpace=wrap;html=1;" vertex="1" parent="1">
          <mxGeometry x="464" y="520" width="42" height="40" as="geometry" />
        </mxCell>
        <mxCell id="yD7dUUptE7uX5ube1N9s-31" value="[Zoom In]" style="text;html=1;strokeColor=none;fillColor=none;align=center;verticalAlign=middle;whiteSpace=wrap;rounded=0;" vertex="1" parent="1">
          <mxGeometry x="545" y="520" width="60" height="20" as="geometry" />
        </mxCell>
        <mxCell id="yD7dUUptE7uX5ube1N9s-38" style="edgeStyle=orthogonalEdgeStyle;rounded=0;orthogonalLoop=1;jettySize=auto;html=1;exitX=0.5;exitY=1;exitDx=0;exitDy=0;entryX=0.5;entryY=0;entryDx=0;entryDy=0;" edge="1" parent="1" source="yD7dUUptE7uX5ube1N9s-33" target="yD7dUUptE7uX5ube1N9s-37">
          <mxGeometry relative="1" as="geometry" />
        </mxCell>
        <mxCell id="yD7dUUptE7uX5ube1N9s-33" value="&lt;span&gt;Move Zoom Slider to the left for zoom amount&lt;/span&gt;" style="rounded=1;whiteSpace=wrap;html=1;" vertex="1" parent="1">
          <mxGeometry x="425" y="610" width="120" height="60" as="geometry" />
        </mxCell>
        <mxCell id="yD7dUUptE7uX5ube1N9s-35" value="[Zoom Out]" style="text;html=1;strokeColor=none;fillColor=none;align=center;verticalAlign=middle;whiteSpace=wrap;rounded=0;" vertex="1" parent="1">
          <mxGeometry x="480" y="570" width="80" height="20" as="geometry" />
        </mxCell>
        <mxCell id="yD7dUUptE7uX5ube1N9s-43" style="edgeStyle=orthogonalEdgeStyle;rounded=0;orthogonalLoop=1;jettySize=auto;html=1;exitX=0.5;exitY=1;exitDx=0;exitDy=0;entryX=0.5;entryY=0;entryDx=0;entryDy=0;" edge="1" parent="1" source="yD7dUUptE7uX5ube1N9s-37" target="yD7dUUptE7uX5ube1N9s-42">
          <mxGeometry relative="1" as="geometry" />
        </mxCell>
        <mxCell id="yD7dUUptE7uX5ube1N9s-37" value="Update Position" style="rounded=1;whiteSpace=wrap;html=1;" vertex="1" parent="1">
          <mxGeometry x="425" y="710" width="120" height="60" as="geometry" />
        </mxCell>
        <mxCell id="yD7dUUptE7uX5ube1N9s-40" style="edgeStyle=orthogonalEdgeStyle;rounded=0;orthogonalLoop=1;jettySize=auto;html=1;entryX=1;entryY=0.5;entryDx=0;entryDy=0;" edge="1" parent="1" source="yD7dUUptE7uX5ube1N9s-39" target="yD7dUUptE7uX5ube1N9s-37">
          <mxGeometry relative="1" as="geometry" />
        </mxCell>
        <mxCell id="yD7dUUptE7uX5ube1N9s-39" value="&amp;lt;&amp;lt;system&amp;gt;&amp;gt;&lt;br&gt;GUI" style="rounded=0;whiteSpace=wrap;html=1;" vertex="1" parent="1">
          <mxGeometry x="600" y="710" width="120" height="60" as="geometry" />
        </mxCell>
        <mxCell id="yD7dUUptE7uX5ube1N9s-44" style="edgeStyle=orthogonalEdgeStyle;rounded=0;orthogonalLoop=1;jettySize=auto;html=1;exitX=0;exitY=0.5;exitDx=0;exitDy=0;entryX=0;entryY=0.25;entryDx=0;entryDy=0;" edge="1" parent="1" source="yD7dUUptE7uX5ube1N9s-42" target="yD7dUUptE7uX5ube1N9s-9">
          <mxGeometry relative="1" as="geometry">
            <Array as="points">
              <mxPoint x="60" y="820" />
              <mxPoint x="60" y="225" />
            </Array>
          </mxGeometry>
        </mxCell>
        <mxCell id="yD7dUUptE7uX5ube1N9s-47" style="edgeStyle=orthogonalEdgeStyle;rounded=0;orthogonalLoop=1;jettySize=auto;html=1;exitX=1;exitY=0.5;exitDx=0;exitDy=0;entryX=1;entryY=0.5;entryDx=0;entryDy=0;" edge="1" parent="1" source="yD7dUUptE7uX5ube1N9s-42" target="yD7dUUptE7uX5ube1N9s-18">
          <mxGeometry relative="1" as="geometry">
            <mxPoint x="630" y="310" as="targetPoint" />
            <Array as="points">
              <mxPoint x="790" y="820" />
              <mxPoint x="790" y="340" />
            </Array>
          </mxGeometry>
        </mxCell>
        <mxCell id="yD7dUUptE7uX5ube1N9s-51" style="edgeStyle=orthogonalEdgeStyle;rounded=0;orthogonalLoop=1;jettySize=auto;html=1;exitX=0.5;exitY=1;exitDx=0;exitDy=0;entryX=0.5;entryY=0;entryDx=0;entryDy=0;" edge="1" parent="1" source="yD7dUUptE7uX5ube1N9s-42" target="yD7dUUptE7uX5ube1N9s-49">
          <mxGeometry relative="1" as="geometry" />
        </mxCell>
        <mxCell id="yD7dUUptE7uX5ube1N9s-42" value="" style="rhombus;whiteSpace=wrap;html=1;" vertex="1" parent="1">
          <mxGeometry x="466" y="800" width="40" height="40" as="geometry" />
        </mxCell>
        <mxCell id="yD7dUUptE7uX5ube1N9s-45" value="[Can&#39;t Zoom in any further]" style="text;html=1;strokeColor=none;fillColor=none;align=center;verticalAlign=middle;whiteSpace=wrap;rounded=0;" vertex="1" parent="1">
          <mxGeometry x="300" y="520" width="170" height="20" as="geometry" />
        </mxCell>
        <mxCell id="yD7dUUptE7uX5ube1N9s-46" value="[Can&#39;t Zoom out any further]" style="text;html=1;strokeColor=none;fillColor=none;align=center;verticalAlign=middle;whiteSpace=wrap;rounded=0;" vertex="1" parent="1">
          <mxGeometry x="180" y="800" width="170" height="20" as="geometry" />
        </mxCell>
        <mxCell id="yD7dUUptE7uX5ube1N9s-48" value="[Zoom In]" style="text;html=1;strokeColor=none;fillColor=none;align=center;verticalAlign=middle;whiteSpace=wrap;rounded=0;" vertex="1" parent="1">
          <mxGeometry x="600" y="800" width="70" height="20" as="geometry" />
        </mxCell>
        <mxCell id="yD7dUUptE7uX5ube1N9s-49" value="" style="ellipse;html=1;shape=endState;fillColor=#1ba1e2;strokeColor=#006EAF;fontColor=#ffffff;" vertex="1" parent="1">
          <mxGeometry x="466" y="910" width="40" height="40" as="geometry" />
        </mxCell>
        <mxCell id="yD7dUUptE7uX5ube1N9s-52" value="[Exit Simulation]" style="text;html=1;strokeColor=none;fillColor=none;align=center;verticalAlign=middle;whiteSpace=wrap;rounded=0;" vertex="1" parent="1">
          <mxGeometry x="490" y="860" width="100" height="20" as="geometry" />
        </mxCell>
      </root>
    </mxGraphModel>
  </diagram>
</mxfile>
